<svg class="svg-icon" style="width: 1.0087890625em; height: 1em;vertical-align: middle;fill: currentColor;overflow: hidden;" viewBox="0 0 1033 1024" version="1.1" xmlns="http://www.w3.org/2000/svg"><path d="M0 151.220727h1033.939684v80.017582H0z"  /><path d="M701.804205 228.837782H332.135479a40.008791 40.008791 0 0 1-40.008791-40.008791v-148.782692a40.008791 40.008791 0 0 1 40.008791-40.008791h369.668726a40.008791 40.008791 0 0 1 40.008791 40.008791v148.782692a40.008791 40.008791 0 0 1-40.008791 40.008791z m-329.659935-80.017582h289.651144v-68.76511H372.14427z"  /><path d="M813.616273 1023.987497H232.813655a40.008791 40.008791 0 0 1-39.896266-37.133159l-56.262362-780.846573a40.008791 40.008791 0 0 1 39.896266-42.884422h680.824595a40.008791 40.008791 0 0 1 39.946278 42.246782l-43.759616 780.809065a40.008791 40.008791 0 0 1-39.946277 37.808307z m-543.569437-80.017582H775.795463l39.271129-700.853996H219.548241z"  /><path d="M400.275451 991.655393a40.008791 40.008791 0 0 1-40.008791-40.008791V356.328295a40.008791 40.008791 0 0 1 80.017582 0v595.318307a40.008791 40.008791 0 0 1-40.008791 40.008791zM644.491612 991.655393a40.008791 40.008791 0 0 1-40.008791-40.008791V356.328295a40.008791 40.008791 0 0 1 80.017582 0v595.318307a40.008791 40.008791 0 0 1-40.008791 40.008791z"  /></svg>